<?xml version="1.0" encoding="UTF-8" standalone="no"?>
<!DOCTYPE svg PUBLIC "-//W3C//DTD SVG 1.1//EN"
 "http://www.w3.org/Graphics/SVG/1.1/DTD/svg11.dtd">
<!-- Generated by graphviz version 2.50.0 (20211209.0339)
 -->
<!-- Title: snakemake_dag Pages: 1 -->
<svg width="388pt" height="476pt"
 viewBox="0.00 0.00 388.00 476.00" xmlns="http://www.w3.org/2000/svg" xmlns:xlink="http://www.w3.org/1999/xlink">
<g id="graph0" class="graph" transform="scale(1 1) rotate(0) translate(4 472)">
<title>snakemake_dag</title>
<polygon fill="white" stroke="transparent" points="-4,4 -4,-472 384,-472 384,4 -4,4"/>
<!-- 0 -->
<g id="node1" class="node">
<title>0</title>
<path fill="none" stroke="#68d856" stroke-width="2" d="M201,-36C201,-36 171,-36 171,-36 165,-36 159,-30 159,-24 159,-24 159,-12 159,-12 159,-6 165,0 171,0 171,0 201,0 201,0 207,0 213,-6 213,-12 213,-12 213,-24 213,-24 213,-30 207,-36 201,-36"/>
<text text-anchor="middle" x="186" y="-15.5" font-family="sans" font-size="10.00">all</text>
</g>
<!-- 1 -->
<g id="node2" class="node">
<title>1</title>
<path fill="none" stroke="#b6d856" stroke-width="2" d="M108,-108C108,-108 78,-108 78,-108 72,-108 66,-102 66,-96 66,-96 66,-84 66,-84 66,-78 72,-72 78,-72 78,-72 108,-72 108,-72 114,-72 120,-78 120,-84 120,-84 120,-96 120,-96 120,-102 114,-108 108,-108"/>
<text text-anchor="middle" x="93" y="-87.5" font-family="sans" font-size="10.00">preseq</text>
</g>
<!-- 1&#45;&gt;0 -->
<g id="edge2" class="edge">
<title>1&#45;&gt;0</title>
<path fill="none" stroke="grey" stroke-width="2" d="M115.99,-71.7C127.81,-62.8 142.39,-51.82 155.18,-42.2"/>
<polygon fill="grey" stroke="grey" stroke-width="2" points="157.39,-44.91 163.28,-36.1 153.18,-39.32 157.39,-44.91"/>
</g>
<!-- 2 -->
<g id="node3" class="node">
<title>2</title>
<path fill="none" stroke="#d8cb56" stroke-width="2" d="M194,-252C194,-252 164,-252 164,-252 158,-252 152,-246 152,-240 152,-240 152,-228 152,-228 152,-222 158,-216 164,-216 164,-216 194,-216 194,-216 200,-216 206,-222 206,-228 206,-228 206,-240 206,-240 206,-246 200,-252 194,-252"/>
<text text-anchor="middle" x="179" y="-231.5" font-family="sans" font-size="10.00">banlist</text>
</g>
<!-- 2&#45;&gt;0 -->
<g id="edge7" class="edge">
<title>2&#45;&gt;0</title>
<path fill="none" stroke="grey" stroke-width="2" d="M151.82,-217.67C105.52,-189.55 19.8,-127.5 57,-72 77.26,-41.77 118.19,-28.77 148.54,-23.19"/>
<polygon fill="grey" stroke="grey" stroke-width="2" points="149.48,-26.58 158.78,-21.5 148.34,-19.67 149.48,-26.58"/>
</g>
<!-- 2&#45;&gt;1 -->
<g id="edge8" class="edge">
<title>2&#45;&gt;1</title>
<path fill="none" stroke="grey" stroke-width="2" d="M168.63,-215.87C153.71,-191.24 126.09,-145.64 108.68,-116.88"/>
<polygon fill="grey" stroke="grey" stroke-width="2" points="111.58,-114.93 103.41,-108.19 105.6,-118.56 111.58,-114.93"/>
</g>
<!-- 7 -->
<g id="node8" class="node">
<title>7</title>
<path fill="none" stroke="#8fd856" stroke-width="2" d="M221.5,-108C221.5,-108 150.5,-108 150.5,-108 144.5,-108 138.5,-102 138.5,-96 138.5,-96 138.5,-84 138.5,-84 138.5,-78 144.5,-72 150.5,-72 150.5,-72 221.5,-72 221.5,-72 227.5,-72 233.5,-78 233.5,-84 233.5,-84 233.5,-96 233.5,-96 233.5,-102 227.5,-108 221.5,-108"/>
<text text-anchor="middle" x="186" y="-87.5" font-family="sans" font-size="10.00">preseq_lcextrap</text>
</g>
<!-- 2&#45;&gt;7 -->
<g id="edge13" class="edge">
<title>2&#45;&gt;7</title>
<path fill="none" stroke="grey" stroke-width="2" d="M179.84,-215.87C181.04,-191.67 183.23,-147.21 184.65,-118.39"/>
<polygon fill="grey" stroke="grey" stroke-width="2" points="188.16,-118.35 185.15,-108.19 181.16,-118 188.16,-118.35"/>
</g>
<!-- 8 -->
<g id="node9" class="node">
<title>8</title>
<path fill="none" stroke="#56d892" stroke-width="2" d="M294,-108C294,-108 264,-108 264,-108 258,-108 252,-102 252,-96 252,-96 252,-84 252,-84 252,-78 258,-72 264,-72 264,-72 294,-72 294,-72 300,-72 306,-78 306,-84 306,-84 306,-96 306,-96 306,-102 300,-108 294,-108"/>
<text text-anchor="middle" x="279" y="-87.5" font-family="sans" font-size="10.00">tracks</text>
</g>
<!-- 2&#45;&gt;8 -->
<g id="edge15" class="edge">
<title>2&#45;&gt;8</title>
<path fill="none" stroke="grey" stroke-width="2" d="M183.77,-215.73C189.55,-196.86 200.59,-166.34 217,-144 225,-133.1 235.66,-122.96 245.88,-114.53"/>
<polygon fill="grey" stroke="grey" stroke-width="2" points="248.26,-117.11 253.92,-108.15 243.91,-111.62 248.26,-117.11"/>
</g>
<!-- 9 -->
<g id="node10" class="node">
<title>9</title>
<path fill="none" stroke="#56a9d8" stroke-width="2" d="M268,-180C268,-180 238,-180 238,-180 232,-180 226,-174 226,-168 226,-168 226,-156 226,-156 226,-150 232,-144 238,-144 238,-144 268,-144 268,-144 274,-144 280,-150 280,-156 280,-156 280,-168 280,-168 280,-174 274,-180 268,-180"/>
<text text-anchor="middle" x="253" y="-159.5" font-family="sans" font-size="10.00">index</text>
</g>
<!-- 2&#45;&gt;9 -->
<g id="edge16" class="edge">
<title>2&#45;&gt;9</title>
<path fill="none" stroke="grey" stroke-width="2" d="M197.29,-215.7C206.43,-207.05 217.64,-196.45 227.6,-187.03"/>
<polygon fill="grey" stroke="grey" stroke-width="2" points="230.06,-189.52 234.92,-180.1 225.25,-184.43 230.06,-189.52"/>
</g>
<!-- 10 -->
<g id="node11" class="node">
<title>10</title>
<path fill="none" stroke="#56d86b" stroke-width="2" d="M340,-180C340,-180 310,-180 310,-180 304,-180 298,-174 298,-168 298,-168 298,-156 298,-156 298,-150 304,-144 310,-144 310,-144 340,-144 340,-144 346,-144 352,-150 352,-156 352,-156 352,-168 352,-168 352,-174 346,-180 340,-180"/>
<text text-anchor="middle" x="325" y="-159.5" font-family="sans" font-size="10.00">macs2</text>
</g>
<!-- 2&#45;&gt;10 -->
<g id="edge17" class="edge">
<title>2&#45;&gt;10</title>
<path fill="none" stroke="grey" stroke-width="2" d="M206.12,-220C229.33,-208.87 262.94,-192.75 288.51,-180.5"/>
<polygon fill="grey" stroke="grey" stroke-width="2" points="290.03,-183.65 297.53,-176.17 287,-177.34 290.03,-183.65"/>
</g>
<!-- 3 -->
<g id="node4" class="node">
<title>3</title>
<path fill="none" stroke="#d8a456" stroke-width="2" d="M194,-324C194,-324 164,-324 164,-324 158,-324 152,-318 152,-312 152,-312 152,-300 152,-300 152,-294 158,-288 164,-288 164,-288 194,-288 194,-288 200,-288 206,-294 206,-300 206,-300 206,-312 206,-312 206,-318 200,-324 194,-324"/>
<text text-anchor="middle" x="179" y="-303.5" font-family="sans" font-size="10.00">markd</text>
</g>
<!-- 3&#45;&gt;2 -->
<g id="edge9" class="edge">
<title>3&#45;&gt;2</title>
<path fill="none" stroke="grey" stroke-width="2" d="M179,-287.7C179,-279.98 179,-270.71 179,-262.11"/>
<polygon fill="grey" stroke="grey" stroke-width="2" points="182.5,-262.1 179,-252.1 175.5,-262.1 182.5,-262.1"/>
</g>
<!-- 4 -->
<g id="node5" class="node">
<title>4</title>
<path fill="none" stroke="#567bd8" stroke-width="2" d="M195.5,-396C195.5,-396 162.5,-396 162.5,-396 156.5,-396 150.5,-390 150.5,-384 150.5,-384 150.5,-372 150.5,-372 150.5,-366 156.5,-360 162.5,-360 162.5,-360 195.5,-360 195.5,-360 201.5,-360 207.5,-366 207.5,-372 207.5,-372 207.5,-384 207.5,-384 207.5,-390 201.5,-396 195.5,-396"/>
<text text-anchor="middle" x="179" y="-375.5" font-family="sans" font-size="10.00">sortbam</text>
</g>
<!-- 4&#45;&gt;3 -->
<g id="edge10" class="edge">
<title>4&#45;&gt;3</title>
<path fill="none" stroke="grey" stroke-width="2" d="M179,-359.7C179,-351.98 179,-342.71 179,-334.11"/>
<polygon fill="grey" stroke="grey" stroke-width="2" points="182.5,-334.1 179,-324.1 175.5,-334.1 182.5,-334.1"/>
</g>
<!-- 5 -->
<g id="node6" class="node">
<title>5</title>
<path fill="none" stroke="#d87d56" stroke-width="2" d="M148,-468C148,-468 80,-468 80,-468 74,-468 68,-462 68,-456 68,-456 68,-444 68,-444 68,-438 74,-432 80,-432 80,-432 148,-432 148,-432 154,-432 160,-438 160,-444 160,-444 160,-456 160,-456 160,-462 154,-468 148,-468"/>
<text text-anchor="middle" x="114" y="-447.5" font-family="sans" font-size="10.00">paired_bowtie2</text>
</g>
<!-- 5&#45;&gt;0 -->
<g id="edge1" class="edge">
<title>5&#45;&gt;0</title>
<path fill="none" stroke="grey" stroke-width="2" d="M86.98,-431.96C53.27,-408.37 0,-362.33 0,-307 0,-307 0,-307 0,-161 0,-116.87 11.25,-101.57 44,-72 73.48,-45.38 117.56,-31.73 148.78,-25"/>
<polygon fill="grey" stroke="grey" stroke-width="2" points="149.72,-28.38 158.83,-22.98 148.34,-21.52 149.72,-28.38"/>
</g>
<!-- 5&#45;&gt;4 -->
<g id="edge12" class="edge">
<title>5&#45;&gt;4</title>
<path fill="none" stroke="grey" stroke-width="2" d="M130.07,-431.7C137.94,-423.22 147.56,-412.86 156.17,-403.58"/>
<polygon fill="grey" stroke="grey" stroke-width="2" points="158.88,-405.81 163.12,-396.1 153.75,-401.05 158.88,-405.81"/>
</g>
<!-- 6 -->
<g id="node7" class="node">
<title>6</title>
<path fill="none" stroke="#d85656" stroke-width="2" d="M277,-468C277,-468 211,-468 211,-468 205,-468 199,-462 199,-456 199,-456 199,-444 199,-444 199,-438 205,-432 211,-432 211,-432 277,-432 277,-432 283,-432 289,-438 289,-444 289,-444 289,-456 289,-456 289,-462 283,-468 277,-468"/>
<text text-anchor="middle" x="244" y="-447.5" font-family="sans" font-size="10.00">single_bowtie2</text>
</g>
<!-- 6&#45;&gt;0 -->
<g id="edge6" class="edge">
<title>6&#45;&gt;0</title>
<path fill="none" stroke="grey" stroke-width="2" d="M278.67,-431.93C318.96,-409.38 380,-365.54 380,-307 380,-307 380,-307 380,-161 380,-116.87 369.01,-101.28 336,-72 304.21,-43.8 256.46,-30.35 223.41,-24.11"/>
<polygon fill="grey" stroke="grey" stroke-width="2" points="223.68,-20.61 213.23,-22.33 222.48,-27.5 223.68,-20.61"/>
</g>
<!-- 6&#45;&gt;4 -->
<g id="edge11" class="edge">
<title>6&#45;&gt;4</title>
<path fill="none" stroke="grey" stroke-width="2" d="M227.93,-431.7C220.06,-423.22 210.44,-412.86 201.83,-403.58"/>
<polygon fill="grey" stroke="grey" stroke-width="2" points="204.25,-401.05 194.88,-396.1 199.12,-405.81 204.25,-401.05"/>
</g>
<!-- 7&#45;&gt;0 -->
<g id="edge3" class="edge">
<title>7&#45;&gt;0</title>
<path fill="none" stroke="grey" stroke-width="2" d="M186,-71.7C186,-63.98 186,-54.71 186,-46.11"/>
<polygon fill="grey" stroke="grey" stroke-width="2" points="189.5,-46.1 186,-36.1 182.5,-46.1 189.5,-46.1"/>
</g>
<!-- 8&#45;&gt;0 -->
<g id="edge5" class="edge">
<title>8&#45;&gt;0</title>
<path fill="none" stroke="grey" stroke-width="2" d="M256.01,-71.7C244.19,-62.8 229.61,-51.82 216.82,-42.2"/>
<polygon fill="grey" stroke="grey" stroke-width="2" points="218.82,-39.32 208.72,-36.1 214.61,-44.91 218.82,-39.32"/>
</g>
<!-- 9&#45;&gt;8 -->
<g id="edge14" class="edge">
<title>9&#45;&gt;8</title>
<path fill="none" stroke="grey" stroke-width="2" d="M259.43,-143.7C262.36,-135.81 265.89,-126.3 269.14,-117.55"/>
<polygon fill="grey" stroke="grey" stroke-width="2" points="272.45,-118.7 272.65,-108.1 265.88,-116.26 272.45,-118.7"/>
</g>
<!-- 10&#45;&gt;0 -->
<g id="edge4" class="edge">
<title>10&#45;&gt;0</title>
<path fill="none" stroke="grey" stroke-width="2" d="M327.89,-143.72C330.13,-124.29 330.64,-92.73 315,-72 293.21,-43.13 252.93,-29.9 223.15,-23.9"/>
<polygon fill="grey" stroke="grey" stroke-width="2" points="223.57,-20.42 213.1,-22.06 222.31,-27.3 223.57,-20.42"/>
</g>
</g>
</svg>
